<?xml version="1.0" encoding="iso-8859-1"?>
<!-- Generator: Adobe Illustrator 17.1.0, SVG Export Plug-In . SVG Version: 6.00 Build 0)  -->
<!DOCTYPE svg PUBLIC "-//W3C//DTD SVG 1.1//EN" "http://www.w3.org/Graphics/SVG/1.1/DTD/svg11.dtd">
<svg version="1.1" id="Capa_1" xmlns="http://www.w3.org/2000/svg" xmlns:xlink="http://www.w3.org/1999/xlink" x="0px" y="0px"
	 viewBox="0 0 282.631 282.631" style="enable-background:new 0 0 282.631 282.631;" xml:space="preserve">
<g>
	<path d="M188.188,235.382c-4.143,0-7.5,3.358-7.5,7.5v10.637H15V96.672h60.06c4.143,0,7.5-3.358,7.5-7.5v-60.06h98.129v49.631
		c0,4.142,3.357,7.5,7.5,7.5s7.5-3.358,7.5-7.5V21.612c0-4.142-3.357-7.5-7.5-7.5H79.141c-0.714,0-1.402,0.106-2.057,0.293
		c-2.588-0.727-5.394-0.029-7.328,1.904l-67.56,67.56c-1.932,1.932-2.631,4.74-1.904,7.327C0.106,91.85,0,92.538,0,93.252v167.767
		c0,4.142,3.357,7.5,7.5,7.5h180.688c4.143,0,7.5-3.358,7.5-7.5v-18.137C195.688,238.74,192.331,235.382,188.188,235.382z
		 M67.56,39.719v41.953H25.606L67.56,39.719z"/>
	<path d="M246.44,97.577h-0.58c-19.955,0-36.19,16.235-36.19,36.191v17.492h-50.462c-4.143,0-7.5,3.358-7.5,7.5v57.961
		c0,4.142,3.357,7.5,7.5,7.5h57.962c4.143,0,7.5-3.358,7.5-7.5v-57.961v-24.992c0-11.685,9.506-21.191,21.19-21.191h0.58
		c11.685,0,21.19,9.506,21.19,21.191v24.992c0,4.142,3.357,7.5,7.5,7.5s7.5-3.358,7.5-7.5v-24.992
		C282.631,113.812,266.396,97.577,246.44,97.577z M209.67,209.221h-42.962v-42.961h42.962V209.221z"/>
	<path d="M188.186,195.235c1.979,0,3.91-0.8,5.31-2.19c1.39-1.4,2.19-3.33,2.19-5.31c0-1.97-0.801-3.9-2.19-5.3
		c-1.399-1.4-3.33-2.2-5.31-2.2c-1.971,0-3.9,0.8-5.301,2.2c-1.399,1.4-2.199,3.33-2.199,5.3c0,1.98,0.8,3.91,2.199,5.31
		C184.285,194.435,186.215,195.235,188.186,195.235z"/>
</g>
<g>
</g>
<g>
</g>
<g>
</g>
<g>
</g>
<g>
</g>
<g>
</g>
<g>
</g>
<g>
</g>
<g>
</g>
<g>
</g>
<g>
</g>
<g>
</g>
<g>
</g>
<g>
</g>
<g>
</g>
</svg>
