<?xml version="1.0" encoding="iso-8859-1"?>
<!-- Generator: Adobe Illustrator 17.1.0, SVG Export Plug-In . SVG Version: 6.00 Build 0)  -->
<!DOCTYPE svg PUBLIC "-//W3C//DTD SVG 1.1//EN" "http://www.w3.org/Graphics/SVG/1.1/DTD/svg11.dtd">
<svg version="1.1" id="Capa_1" xmlns="http://www.w3.org/2000/svg" xmlns:xlink="http://www.w3.org/1999/xlink" x="0px" y="0px"
	 viewBox="0 0 254.407 254.407" style="enable-background:new 0 0 254.407 254.407;" xml:space="preserve">
<g>
	<path d="M203.057,221.271c-4.143,0-7.5,3.358-7.5,7.5v10.637H29.869V82.56h60.06c4.143,0,7.5-3.358,7.5-7.5V15h98.129v49.631
		c0,4.142,3.357,7.5,7.5,7.5s7.5-3.358,7.5-7.5V7.5c0-4.142-3.357-7.5-7.5-7.5H94.009c-0.714,0-1.402,0.106-2.056,0.292
		c-2.588-0.727-5.395-0.029-7.328,1.904l-67.56,67.56c-1.932,1.932-2.631,4.74-1.904,7.327c-0.186,0.654-0.292,1.343-0.292,2.057
		v167.767c0,4.142,3.357,7.5,7.5,7.5h180.688c4.143,0,7.5-3.358,7.5-7.5v-18.137C210.557,224.628,207.2,221.271,203.057,221.271z
		 M82.428,25.607V67.56H40.475L82.428,25.607z"/>
	<path d="M203.347,83.465h-0.579c-19.956,0-36.191,16.235-36.191,36.191v24.992v57.961c0,4.142,3.357,7.5,7.5,7.5h57.962
		c4.143,0,7.5-3.358,7.5-7.5v-57.961v-24.992C239.539,99.7,223.303,83.465,203.347,83.465z M181.577,119.656
		c0-11.685,9.507-21.191,21.191-21.191h0.579c11.685,0,21.191,9.506,21.191,21.191v17.492h-42.962V119.656z M224.539,195.109
		h-42.962v-42.961h42.962V195.109z"/>
	<path d="M203.053,181.133c1.98,0,3.91-0.81,5.311-2.2c1.39-1.4,2.189-3.33,2.189-5.31c0-1.97-0.8-3.9-2.189-5.3
		c-1.4-1.39-3.33-2.2-5.311-2.2c-1.97,0-3.899,0.81-5.3,2.2c-1.4,1.4-2.2,3.33-2.2,5.3c0,1.98,0.8,3.91,2.2,5.31
		C199.154,180.323,201.083,181.133,203.053,181.133z"/>
</g>
<g>
</g>
<g>
</g>
<g>
</g>
<g>
</g>
<g>
</g>
<g>
</g>
<g>
</g>
<g>
</g>
<g>
</g>
<g>
</g>
<g>
</g>
<g>
</g>
<g>
</g>
<g>
</g>
<g>
</g>
</svg>
