<svg xmlns="http://www.w3.org/2000/svg" xmlns:xlink="http://www.w3.org/1999/xlink" viewBox="0 0 977.74 999.82"><defs><style>.cls-1,.cls-32,.cls-34,.cls-38{fill:none;}.cls-2{clip-path:url(#clip-path);}.cls-3{fill:#cbc0d4;}.cls-4{fill:#d9cee3;}.cls-5{fill:#9c80b3;}.cls-36,.cls-37,.cls-6{fill:#35234b;}.cls-7{fill:#f57171;}.cls-8{fill:#ff7b7b;}.cls-9{fill:#f55d5d;}.cls-10{fill:#ff8484;}.cls-11{fill:#ff8a8a;}.cls-12{fill:#f66;}.cls-13{fill:#ffc999;}.cls-14{fill:#ffd6b0;}.cls-15{fill:#d8416b;}.cls-16{fill:#b50235;opacity:0.39;}.cls-17{fill:#c2325a;}.cls-18{fill:#ba204c;}.cls-19{fill:#fff;}.cls-20{fill:#d6d6d6;}.cls-21{fill:#d84c73;}.cls-22{fill:#cc3b63;}.cls-23{fill:#cf2e5a;}.cls-24{fill:#c42351;}.cls-25{fill:#a81841;}.cls-26{fill:#eae5f0;}.cls-27{fill:#e85c84;}.cls-28{fill:#52307a;}.cls-29{fill:#e1dce6;}.cls-30{fill:#261936;}.cls-31{fill:#ffb069;}.cls-32,.cls-34{stroke:#9833ff;stroke-width:0.7px;}.cls-32{stroke-linecap:round;stroke-linejoin:round;}.cls-33{fill:#9833ff;}.cls-34,.cls-38{stroke-miterlimit:10;}.cls-35{fill:#e2d9eb;}.cls-36{font-size:28.88px;font-family:OpenSans-Light, Open Sans;font-weight:300;}.cls-37{font-size:17.95px;font-family:CalistoMT, Calisto MT;}.cls-38{stroke:#35234b;stroke-width:1.41px;}.cls-39{fill:#d7d2db;}.cls-40{fill:#ff7070;}.cls-41{fill:#ff9494;}.cls-42{fill:#f99;}</style><clipPath id="clip-path"><path class="cls-1" d="M205.77,746.42s-158.51-237.78-9.25-388.7c0,0,38.68-37.22,128.24-24.22,45.39,6.59,91.76,2.88,135.06-12.25a494.62,494.62,0,0,0,121.81-63c112.11-79.15,220.7-32.39,226.82,98.56s-90,389.57-90,389.57Z"/></clipPath></defs><title>1</title><g id="Layer_2" data-name="Layer 2"><g id="Layer_1-2" data-name="Layer 1"><g class="cls-2"><path class="cls-3" d="M205.77,746.42s-158.51-237.78-9.25-388.7c0,0,38.68-37.22,128.24-24.22,45.39,6.59,91.76,2.88,135.06-12.25a494.62,494.62,0,0,0,121.81-63c112.11-79.15,220.7-32.39,226.82,98.56s-90,389.57-90,389.57Z"/><rect class="cls-4" x="-140.06" y="303.64" width="797.33" height="1.58" transform="translate(-140.84 304.63) rotate(-49.68)"/><rect class="cls-4" x="-120.04" y="320.64" width="797.33" height="1.58" transform="translate(-146.73 325.9) rotate(-49.68)"/><rect class="cls-4" x="-100.02" y="337.64" width="797.33" height="1.58" transform="translate(-152.63 347.14) rotate(-49.68)"/><rect class="cls-4" x="-79.99" y="354.64" width="797.33" height="1.58" transform="translate(-158.52 368.41) rotate(-49.68)"/><rect class="cls-4" x="-59.97" y="371.64" width="797.33" height="1.58" transform="translate(-164.41 389.7) rotate(-49.68)"/><rect class="cls-4" x="-39.95" y="388.63" width="797.33" height="1.58" transform="translate(-170.3 410.96) rotate(-49.68)"/><rect class="cls-4" x="-19.92" y="405.63" width="797.33" height="1.58" transform="translate(-176.2 432.18) rotate(-49.68)"/><rect class="cls-4" x="0.1" y="422.63" width="797.33" height="1.58" transform="translate(-182.09 453.43) rotate(-49.68)"/><rect class="cls-4" x="20.12" y="439.63" width="797.33" height="1.58" transform="translate(-187.98 474.77) rotate(-49.68)"/><rect class="cls-4" x="40.15" y="456.62" width="797.33" height="1.58" transform="translate(-193.87 496.04) rotate(-49.68)"/><rect class="cls-4" x="60.17" y="473.62" width="797.33" height="1.58" transform="translate(-199.77 517.26) rotate(-49.68)"/><rect class="cls-4" x="80.19" y="490.62" width="797.33" height="1.58" transform="translate(-205.66 538.48) rotate(-49.68)"/><rect class="cls-4" x="100.22" y="507.62" width="797.33" height="1.58" transform="translate(-211.55 559.79) rotate(-49.68)"/><rect class="cls-4" x="120.24" y="524.62" width="797.33" height="1.58" transform="translate(-217.44 581.11) rotate(-49.68)"/><rect class="cls-4" x="140.26" y="541.61" width="797.33" height="1.58" transform="translate(-223.34 602.32) rotate(-49.68)"/><rect class="cls-4" x="160.29" y="558.61" width="797.33" height="1.58" transform="translate(-229.23 623.59) rotate(-49.68)"/><rect class="cls-4" x="180.31" y="575.61" width="797.33" height="1.58" transform="translate(-235.13 644.85) rotate(-49.68)"/><rect class="cls-4" x="200.34" y="592.61" width="797.33" height="1.58" transform="translate(-241.02 666.12) rotate(-49.68)"/><rect class="cls-4" x="220.36" y="609.6" width="797.33" height="1.58" transform="translate(-246.91 687.38) rotate(-49.68)"/><rect class="cls-4" x="240.38" y="626.6" width="797.33" height="1.58" transform="translate(-252.8 708.65) rotate(-49.68)"/><rect class="cls-4" x="260.4" y="643.6" width="797.33" height="1.58" transform="translate(-258.7 729.86) rotate(-49.68)"/><rect class="cls-4" x="280.43" y="660.6" width="797.33" height="1.58" transform="translate(-264.59 751.18) rotate(-49.68)"/><rect class="cls-4" x="300.45" y="677.6" width="797.33" height="1.58" transform="translate(-270.48 772.44) rotate(-49.68)"/><rect class="cls-4" x="320.48" y="694.59" width="797.33" height="1.58" transform="translate(-276.38 793.71) rotate(-49.68)"/></g><polygon class="cls-5" points="135.64 746.42 219.38 745.92 303.13 745.63 470.62 745.38 638.1 745.62 721.85 745.91 805.59 746.42 721.85 746.93 638.1 747.23 470.62 747.47 303.13 747.22 219.38 746.93 135.64 746.42"/><path class="cls-6" d="M286.45,728.48l-4,17.06a.72.72,0,0,0,.7.88h4.16a.89.89,0,0,0,.84-.61l1-3,3.59,3.59h34.88a.63.63,0,0,0,.22-1.22l-20.23-7.75,1.71-7.78Z"/><path class="cls-7" d="M360.69,623.11a45.71,45.71,0,0,1-2.46,12.41c-14.36,38.28-45.12,96.37-45.12,96.37l-29.1-2s17.43-78.6,36.59-105.94c0,0-54.65-126.45-55.33-142.17s59.15-.91,59.15-.91,3.44,8.33,8.23,21.28C344.06,533.07,363.11,590.43,360.69,623.11Z"/><path class="cls-8" d="M360.69,623.11c-11.95.95-29.27-22.57-39.76-54.71-11.07-33.91-10.36-64.54,1.6-68.45,3-1,6.47-.16,10.12,2.15C344.06,533.07,363.11,590.43,360.69,623.11Z"/><path class="cls-9" d="M294.66,526.11c3.72,7.84,7.33,15.72,11,23.59l10.82,23.66c3.62,7.88,7.15,15.8,10.71,23.71l10.65,23.74.17.37-.16.38L326.78,647c-3.71,8.45-7.35,16.94-11.11,25.37l-11.24,25.33c-3.81,8.41-7.56,16.85-11.43,25.24,3.47-8.57,7.05-17.08,10.57-25.62l10.75-25.53c3.57-8.52,7.25-17,10.88-25.48l10.93-25.45v.74l-10.51-23.8c-3.5-7.94-7-15.86-10.45-23.83l-10.34-23.87C301.45,542.07,298,534.11,294.66,526.11Z"/><path class="cls-10" d="M288.63,534.13c-3.36,28-9.31,57.89-12,84-6.13,60.27-10.13,111.67-10.13,111.67l-7.87-.38-19.82-1c-5.54-42.15-2.46-79.55-5.88-111.8-9.1-86.1-2.28-138.56-2.28-138.56l59.44,3.48C292,497.17,290.9,515.25,288.63,534.13Z"/><path class="cls-11" d="M288.63,534.13c-3.36,28-9.31,57.89-12,84-6.13,60.27-10.13,111.67-10.13,111.67l-7.87-.38c-6.55-13.38-8.82-56.72-4.95-107.68,4.65-61.07,16.35-110,26.15-109.24C283.72,512.84,286.72,520.81,288.63,534.13Z"/><path class="cls-12" d="M245,510.79c.22,8.91.31,17.82.46,26.73l.26,26.72c.16,17.82.14,35.64.22,53.46-.07,17.81-.06,35.63-.21,53.45l-.27,26.73c-.15,8.91-.24,17.81-.46,26.72-.21-8.91-.3-17.81-.46-26.72l-.26-26.73c-.15-17.82-.14-35.64-.21-53.45s.06-35.64.21-53.46l.27-26.72C244.69,528.61,244.78,519.7,245,510.79Z"/><path class="cls-6" d="M242.34,728.48l-4,17.06a.72.72,0,0,0,.7.88h4.16a.89.89,0,0,0,.84-.61l1-3,3.59,3.59h34.87a.63.63,0,0,0,.23-1.22l-20.24-7.75,1.71-7.78Z"/><path class="cls-13" d="M392.58,508.22V518.4a144.91,144.91,0,0,1-15-6.86c-15.85-8.23-40.69-24-56.15-48.27,0,0-26-63.4-14.24-100.82,1.1-3.52,10.46-1.75,13.44.51,10,7.63,18.21,44.67,24.08,90.06,0,0,7.84,6.75,17.21,16C374.26,481.07,389.22,497.39,392.58,508.22Z"/><path class="cls-14" d="M392.58,508.22V518.4a144.91,144.91,0,0,1-15-6.86c-12.7-8.54-29.47-21.39-36.88-33.83a7.49,7.49,0,0,1,6.38-11.27A39.28,39.28,0,0,1,362,469C374.26,481.07,389.22,497.39,392.58,508.22Z"/><path class="cls-15" d="M345.36,452.44l-1.11.36-1.19.38-17.15,5.58-1.15.37-5.37,1.75s-2-5.39-4.5-13.78c-.15-.44-.29-.89-.42-1.34-1.59-5.26-3.37-11.57-5.06-18.39-.11-.45-.22-.89-.32-1.34-.49-2-1-4-1.43-6.11s-.88-4.06-1.29-6.12-.78-4.12-1.13-6.19c-.08-.43-.15-.87-.22-1.29a162.32,162.32,0,0,1-2.08-18.45c0-.43,0-.85-.05-1.28a68.73,68.73,0,0,1,1.41-18.46c.09-.44.2-.87.32-1.28a30.1,30.1,0,0,1,2.05-5.44c.18-.35.37-.71.56-1.05l.1,0c1.08-.36,11.28-3.5,16.75,5.13.27.42.54.9.83,1.42s.55,1,.82,1.52a122.53,122.53,0,0,1,7.15,18.26c.12.38.23.77.37,1.15,1.67,5.41,3.35,11.63,4.95,18.6.08.37.16.76.24,1.12,1.3,5.73,2.52,12,3.61,18.65.06.36.11.7.17,1.05.27,1.67.53,3.37.78,5.09.46,3.2.9,6.48,1.3,9.87.15,1.23.28,2.47.41,3.73l.12,1C345,448.75,345.2,450.59,345.36,452.44Z"/><path class="cls-16" d="M340.48,454l-5.33,1.73c-.1-2.81-.23-5.74-.38-8.73,0-.39,0-.77-.06-1.16-.33-6-.72-12.27-1.19-18.57,0-.38,0-.78-.09-1.17-.45-6.27-1-12.53-1.49-18.57,0-.39-.08-.79-.11-1.17-.59-6.59-1.18-12.88-1.74-18.55,0-.41-.08-.81-.11-1.21-.19-1.82-.37-3.57-.53-5.23a34.25,34.25,0,0,0-2.56-9.93c-.26-.63-.54-1.26-.86-1.86s-.5-1-.78-1.47-.48-.84-.74-1.26a34.75,34.75,0,0,0-3.84-5.06,12.92,12.92,0,0,1,3.41,3.64c.27.42.54.9.83,1.42s.55,1,.82,1.52a122.53,122.53,0,0,1,7.15,18.26c.12.38.23.77.37,1.15,1.15,3.7,2.3,7.79,3.4,12.23.19,2.08.39,4.2.58,6.35,0,.38.07.78.11,1.17.52,6,1,12.3,1.49,18.57,0,.39.07.79.09,1.17.47,6.3.86,12.58,1.19,18.57,0,.39,0,.77.06,1.16C340.29,449.41,340.4,451.75,340.48,454Z"/><path class="cls-17" d="M344.71,445.91h-.43l0-3.73c-.4-3.39-.84-6.67-1.3-9.87l0,13.6-17.08-.1.06-18.08v-.41l16.2-.1c-.06-.35-.11-.69-.17-1.05l-16-.1L326,407.58l12.49-.06c-.08-.36-.16-.75-.24-1.12l-12.25,0-.07-18.51,7.37,0c-.14-.38-.25-.77-.37-1.15l-7,0v-4.16c0-4.69-.08-9.39-.14-14.06-.27-.55-.55-1.06-.82-1.52l-11.84-.06-5.67,0c0-2.17,0-4.35-.07-6.52l-.1,0c-.19.34-.38.7-.56,1.05,0,1.81,0,3.63-.05,5.43h-2c-.12.41-.23.84-.32,1.28h2.31q-.08,7.16-.13,14.31v4.13h-3.58c0,.43,0,.85.05,1.28h3.53l-.07,18.43H305c.07.42.14.86.22,1.29h1.16l0,6.19c.41,2.06.85,4.1,1.29,6.12l0-12.3,5.45,0,11.65-.06-.06,18.48L313.07,426h-4c.1.45.21.89.32,1.34l3.66,0,11.58-.07v.41l.07,18.08-10.25-.05c.13.45.27.9.42,1.34l9.83,0,0,12.07,1.15-.37,0-11.71,17.1-.09v6.22l1.19-.38,0-5.85h.55Zm-20-39.58-11.66-.05-5.45,0-.07-18.43,5.52,0,11.73-.06Zm.08-23.88v4.16l-11.73-.07-5.52,0v-4.12q-.07-7.15-.13-14.3l5.66,0,11.87-.07C324.9,372.9,324.84,377.67,324.81,382.45Z"/><path class="cls-18" d="M317.33,457s1.26,4,2.28,4.89,26.77-8.77,27-9.56-.68-9.46-1.25-10.71S317,451.31,317.33,457Z"/><path class="cls-19" d="M234.81,362.25a53.65,53.65,0,0,0,4.7-4.05,27.36,27.36,0,0,1,14.62-7.41c9.21-1.61,19.56-3,27.31-3,9.25,0,20.6,3.95,29.36,7.74,5.12,7.75,10.11,15.49,14.09,23.73.22,27,.49,79-.48,101.6,0,0-59.85,8.43-92.2.37V367.41a6.55,6.55,0,0,1,2.57-5.14Z"/><path class="cls-20" d="M271.91,406.72s2.59,65.71-.46,78c0,0,36.6,0,46.43-3V427s-4.71,51-24.88,38.66S271.91,406.72,271.91,406.72Z"/><path class="cls-21" d="M273.36,446.21v.44c0,6.51-.12,13-.41,19.29,0,.15,0,.3,0,.46-.33,6.66-.83,13.13-1.58,19.25,0,.18,0,.34-.06.52-.39,3.1-.85,6.12-1.37,9-.19,1.12-.41,2.24-.62,3.33q-.71,3.52-1.58,6.78c0,.22-.11.43-.16.64-.4,1.45-.81,2.85-1.24,4.2a3.17,3.17,0,0,1-4,2c-2.51-.86-6.41-2.28-10.86-4.14l-.31-.12c-1.28-.53-2.62-1.12-4-1.74-.79-.35-1.6-.72-2.4-1.1a108.62,108.62,0,0,1-11.5-6.18l-.57-.37a53.27,53.27,0,0,1-7.71-5.84,7.69,7.69,0,0,1-2.41-6.12v0c0-.41,0-.85.08-1.31.23-4.2.51-10.68.81-18.4,0-.44,0-.89,0-1.34.2-5.65.42-11.91.63-18.4,0-.44,0-.89,0-1.34.19-6.06.38-12.29.56-18.4,0-.44,0-.89,0-1.33.06-1.9.11-3.8.16-5.67-1.92,2-3.81,3.88-5.6,5.66-.46.46-.92.92-1.37,1.35-.91.91-1.8,1.77-2.65,2.57-.45.45-.9.88-1.33,1.29-5.24,5-8.81,8.16-8.81,8.16l-8.19-2.63-1.31-.42L176,430.05c.67-1,1.32-2,2-3l.52-.78q7-10.33,13.46-18.81c.27-.37.54-.73.82-1.08q1.47-1.95,2.93-3.8c.39-.51.78-1,1.18-1.52,3.88-4.92,7.56-9.32,11-13.26.37-.42.74-.84,1.1-1.23q2.66-3,5.14-5.66l1-1.09c4.55-4.83,8.53-8.69,11.85-11.71l1.43-1.3c1.58-1.39,3-2.58,4.19-3.58a8.65,8.65,0,0,1,.71-.58c1.56-1.28,2.79-2.21,3.63-2.82A40.29,40.29,0,0,1,251,351.33l.45-.14c4.3-1.46,11.33-2.3,16.74-2.23,0,0-1.15,7,.12,18.22,0,.21.05.41.08.63.23,2,.47,4.17.7,6.44.33,3.1.67,6.44,1,9.95.1.9.18,1.83.26,2.76,0,.18,0,.36.06.54.54,6,1,12.46,1.5,19.22,0,.16,0,.33,0,.49.41,6.23.76,12.7,1,19.26,0,.15,0,.3,0,.45,0,1.14.09,2.29.13,3.42C273.25,435.6,273.35,440.92,273.36,446.21Z"/><path class="cls-22" d="M273.36,446.65v-.44l-3.16,0,.06-18.43V427c.9,0,1.8,0,2.7,0,0-.15,0-.3,0-.45-.9,0-1.79,0-2.69,0l-.07-19.19c.59,0,1.16,0,1.75,0,0-.16,0-.33,0-.49-.57,0-1.16,0-1.74,0l-.06-19.18h.3c0-.18,0-.36-.06-.54h-.24l0-2.75c-.31-3.51-.65-6.85-1-9.95l-.06,8.2v4.49c-5.74-.11-11.48-.18-17.22-.24h0l0-4.25c0-4.81-.06-9.62-.11-14.43h.16l16.59-.21c0-.22-.05-.42-.08-.63q-8.26-.14-16.51-.22h-.17q-.08-7.89-.18-15.77l-.45.14c-.07,5.2-.12,10.43-.16,15.63l-17.54-.09,0-4.18a8.65,8.65,0,0,0-.71.58c0,1.21,0,2.41,0,3.6l-4.15,0-1.43,1.3,5.56,0c0,4.79-.07,9.56-.11,14.34v4.16l-11.73-.07-5.52,0,0-4.12c0-.86,0-1.73,0-2.59l-1,1.09c0,.5,0,1,0,1.5v4.13l-5.11,0c-.36.39-.73.81-1.1,1.23l6.21,0L214,406.31l-17.12.08V401.1c-.4.49-.79,1-1.18,1.52v3.78l-2.92,0c-.28.35-.55.71-.82,1.08h3.73l-.07,18.63-6.1,0-11,.14-.52.78,11.54.13,6.1,0v.48l0,8.61,1.31.42,0-9v-.47l17,.09v3.88c.43-.41.88-.84,1.33-1.29v-2.58h2.64c.45-.43.91-.89,1.37-1.35l-4,0-.06-18.43,5.45,0,11.65-.06-.07,18.48-7.52,0c0,.44,0,.89,0,1.33l7.56,0v.4l.07,18.07-8.19,0c0,.45,0,.9,0,1.34l8.23,0,.07,18.49-8.93-.05c0,.45,0,.9,0,1.34l9,0,0,6.22.11,12.27-9.91,0c0,.46,0,.9-.08,1.31v0l10,0,.08,9.13,0,2.87.57.37,0-3.24.09-9.13,17.48-.1.08,9.23.14,9.46-6.34,0c.8.38,1.61.75,2.4,1.1l4,0,0,1.76.31.12,0-1.88h.39c5.24-.06,10.48-.11,15.73-.2.05-.21.11-.42.16-.64q-7.95-.12-15.89-.2h-.37l.13-9.46.08-9.23h.16q8.67-.09,17.34-.22l.08,9.45.05,2.88c.21-1.09.43-2.21.62-3.33l.09-9h1.28c0-.18,0-.34.06-.52-.45,0-.89,0-1.34,0l.11-12.61,0-6.57,2.79,0c0-.16,0-.31,0-.46l-2.82,0,.06-19.2C271.24,446.7,272.31,446.68,273.36,446.65Zm-4.4-.52c-5.7-.1-11.39-.16-17.09-.22l.07-18.18v-.51c5.64-.05,11.3-.12,16.95-.23v.74Zm-.07-19.73c-5.65-.11-11.31-.17-16.95-.23l-.07-18.69q8.55-.08,17.09-.22Zm-35.43-38.56,17.25-.08-.07,18.68-17.12-.09Zm18.36-.08c5.74-.06,11.48-.13,17.22-.24L269,406.66q-8.55-.14-17.11-.22l-.07-18.68Zm-18.38-5.31c0-4.78-.07-9.55-.11-14.34l17.51-.09c-.05,4.81-.08,9.62-.12,14.43v4.25l-17.25-.09Zm-19.52,43.6-17,.08-.07-18.61,17.1.09Zm6.74-19.77-5.45,0-.07-18.43,5.52,0,11.73-.06-.07,18.48Zm12.88,1.3,17.1-.1-.07,18.69-17-.08Zm.07,20.15v-.41l17-.1v.51l.06,18.18-17.08-.1Zm-.07,19.32,17.1-.09.05,18.69-17.21-.1Zm-.19,38.23.11-12.27,0-6.22,17.21-.1,0,6.32.11,12.37ZM269.05,473l.11,12.6q-8.67-.15-17.34-.23h-.16l.11-12.37,0-6.32h0c5.74-.06,11.46-.12,17.21-.22Zm0-7.14c-5.75-.1-11.47-.16-17.21-.22h0l.07-18.69q8.55-.07,17.09-.23Z"/><path class="cls-13" d="M258.66,476.71l-15.55,1.41c-18.68-2.3-59.76-24.7-70.66-32.74a4.7,4.7,0,0,1-1.29-6.13c1.76-3,4.91-7.93,9-13.87,4.28,1.69,8.9,2.73,13.23,4.13a75.81,75.81,0,0,1,14.14,6.26c-1.42,1.13-2.85,2.21-4.27,3.24,0,0,.28.13.81.41,5.52,2.88,38.25,20.22,51.7,34A34.38,34.38,0,0,1,258.66,476.71Z"/><path class="cls-14" d="M255.78,473.42a5.56,5.56,0,0,1-3.83.15,165,165,0,0,1-54.73-23.7,4.28,4.28,0,0,1-1.79-1.81c-.5-1.23.21-2.61,1-3.65a14.93,14.93,0,0,1,7.62-5C209.6,442.3,242.33,459.64,255.78,473.42Z"/><path class="cls-16" d="M224.88,420.36l18.75-24.53S235.71,427,224.4,436.57Z"/><path class="cls-23" d="M209.66,432.51a10,10,0,0,1,1.78-2.7,9.84,9.84,0,0,1,2.48-2.08,11.19,11.19,0,0,1-4.26,4.78Z"/><path class="cls-23" d="M208.51,432.51a12.3,12.3,0,0,1-4.44-5,10.76,10.76,0,0,1,2.57,2.21A11,11,0,0,1,208.51,432.51Z"/><path class="cls-23" d="M208.51,423.71a13.12,13.12,0,0,1,.6,7,13.14,13.14,0,0,1-.6-7Z"/><path class="cls-24" d="M205.56,439.22a9,9,0,0,0,3.78-2.83,1.82,1.82,0,0,0-.38-2.46c-4.66-3.77-22.2-17.82-25.82-18.33-4.19-.6-10.6,12.86-7.18,14.46,0,0,24.27,8.61,28.67,9.28A1.74,1.74,0,0,0,205.56,439.22Z"/><path class="cls-25" d="M176.9,427c2.43.62,4.82,1.35,7.2,2.12s4.74,1.6,7.09,2.47,4.67,1.81,7,2.83a52.74,52.74,0,0,1,6.68,3.45c-1.15-.49-2.3-1-3.46-1.43s-2.32-.92-3.5-1.35l-7-2.62-7-2.67C181.53,428.88,179.2,428,176.9,427Z"/><path class="cls-25" d="M180.91,422.74a64.23,64.23,0,0,1,6.89,2.48,70.31,70.31,0,0,1,6.61,3.17,43.58,43.58,0,0,1,6.16,4,29.25,29.25,0,0,1,2.75,2.46l1.17,1.43c.34.52.64,1.06.95,1.58a20.56,20.56,0,0,0-5.3-4.89,67.82,67.82,0,0,0-6.18-3.76c-2.12-1.17-4.28-2.26-6.46-3.34S183.12,423.78,180.91,422.74Z"/><path class="cls-24" d="M253.64,373.9c5.15,20.19,17.4,51.33,19.44,56.44-1.33-42.21-4.87-81.38-4.87-81.38S248,351.86,253.64,373.9Z"/><path class="cls-16" d="M273.08,430.34S254,380.88,252.79,369.49c0,0-1,50.13,20.29,68.37Z"/><rect class="cls-24" x="231.03" y="476.61" width="34.23" height="7.17" rx="1.26"/><path class="cls-16" d="M232.87,483.78v10.7a2.08,2.08,0,0,0,1,1.81c3.79,2.13,17.13,8.48,28.86,0a2.07,2.07,0,0,0,.84-1.68V483.78Z"/><path class="cls-21" d="M335.38,466.74c0,3.67,0,7-.2,9.87a58.75,58.75,0,0,1-.77,7.17c-.11.56-.23,1.08-.35,1.54a10.63,10.63,0,0,1-.37,1.16,3,3,0,0,1-.14.36,56,56,0,0,1-6.81,11.2h0a5.48,5.48,0,0,1-.59.72v0c-.17.23-.36.46-.56.69-1.62,2-3.29,3.89-4.85,5.51l-1.28,1.3c-1.75,1.72-3.31,3.13-4.5,4.16a1.41,1.41,0,0,1-2.33-1.07c0-.86,0-1.88,0-3.07,0-.43,0-.88,0-1.34,0-4.53-.07-10.9-.13-18.4,0-.44,0-.88,0-1.33,0-5.63-.08-11.85-.12-18.4,0-.44,0-.89,0-1.34-.05-6-.09-12.17-.15-18.4,0-.45,0-.9,0-1.34-.05-5.06-.1-10.13-.15-15.09,0,0,0,0,0,0h0c0-1.1,0-2.18,0-3.26,0-.45,0-.9,0-1.34-.07-6.45-.14-12.67-.22-18.4,0-.45,0-.9,0-1.34-.1-7.08-.2-13.38-.29-18.4,0-.45,0-.9,0-1.34,0-1.54-.06-2.94-.1-4.18A50.39,50.39,0,0,0,309,368.15c-.14-.45-.29-.89-.46-1.31,0,0,0-.11-.05-.15-.25-.67-.51-1.31-.78-1.93-5.13-11.85-14-15.16-14.74-15.43h.13a63.25,63.25,0,0,1,14.76,3.71l.1,0c.12.05.26.09.38.15a34,34,0,0,1,16.14,13.63c.26.42.51.83.74,1.26s.54,1,.78,1.47.6,1.23.86,1.86a34.25,34.25,0,0,1,2.56,9.93c.16,1.66.34,3.41.53,5.23,0,.4.07.8.11,1.21.56,5.67,1.15,12,1.74,18.55,0,.38.07.78.11,1.17.52,6,1,12.3,1.49,18.57,0,.39.07.79.09,1.17.47,6.3.86,12.58,1.19,18.57,0,.39,0,.77.06,1.16.34,6.68.56,13,.6,18.58C335.38,466,335.38,466.36,335.38,466.74Z"/><path class="cls-22" d="M308,353.09l-.1,0c-.05,3.91-.09,7.8-.15,11.71.27.62.53,1.26.78,1.93,0-4.48-.08-9-.15-13.45C308.25,353.18,308.11,353.14,308,353.09Z"/><path class="cls-22" d="M327,473l0-6.22,8.38-.05c0-.38,0-.76,0-1.14l-8.37-.05.07-18.5,7.7,0c0-.39,0-.77-.06-1.16l-7.64-.05.07-18.08v-.41l6.38,0c0-.38,0-.78-.09-1.17l-6.29,0-.07-18.51,4.87,0c0-.39-.08-.79-.11-1.17l-4.77,0L327,387.84h3.1c0-.41-.08-.81-.11-1.21h-3l0-4.16q0-5.49-.08-11c-.26-.63-.54-1.26-.86-1.86,0,4.3-.07,8.57-.09,12.85l0,4.16-11.73-.07h-2.77c0,.44,0,.89,0,1.34l2.73,0,11.73-.06-.07,18.48-11.66-.05h-2.44c0,.44,0,.89,0,1.34l2.43,0,11.65-.06-.07,18.48L314.19,426H312c0,.44,0,.89,0,1.34l2.2,0,11.58-.06v.4l.06,18.07-11.64-.05h-2c0,.44,0,.89,0,1.34h2l11.65-.05.05,18.49-11.7-.06h-1.86c0,.45,0,.9,0,1.34h1.84l11.7-.06,0,6.22.11,12.27-11.84,0h-1.72c0,.45,0,.89,0,1.33h1.71l11.84-.05.08,9.13,0,3.11a5.48,5.48,0,0,0,.59-.72h0l0-2.38.09-9.13,6.82,0a10.63,10.63,0,0,0,.37-1.16l-7.19,0Z"/><path class="cls-22" d="M325.25,368.13c-.23-.43-.48-.84-.74-1.26l-10.32-.06-5.62,0c.17.42.32.86.46,1.31l5.16,0Z"/><path class="cls-22" d="M312.61,505c0,.46,0,.91,0,1.34h1.58l5.27,0,1.28-1.3-6.55,0Z"/><path class="cls-24" d="M335.18,476.61a58.75,58.75,0,0,1-.77,7.17h-17.7a1.83,1.83,0,0,1-1.83-1.83v-3.5a1.83,1.83,0,0,1,1.83-1.84Z"/><path class="cls-16" d="M334.41,483.78c-.11.56-.23,1.08-.35,1.54a10.63,10.63,0,0,1-.37,1.16,3,3,0,0,1-.14.36,56,56,0,0,1-6.81,11.2h0a5.48,5.48,0,0,1-.59.72v0c-.17.23-.36.46-.56.69a35.45,35.45,0,0,1-7.82-3.19,2.09,2.09,0,0,1-1.06-1.81v-10.7Z"/><path class="cls-24" d="M293,349.33c1,.37,17.58,6.55,18.32,33,.26,9.49.5,28.07.69,48.26h0c28.27-71.63-15.71-80.75-18.91-81.31Z"/><path class="cls-16" d="M312,437.86v-7.23s9.7-22.83,9.44-40.64c0,0,.15-9.86-1.85-15.38C319.61,374.61,332.79,399.46,312,437.86Z"/><path class="cls-26" d="M379.47,344.59l-3.25.39A27.44,27.44,0,0,1,379.47,344.59Z"/><path class="cls-21" d="M375.26,357.68,341,361.26l-1.85-17.72a4.81,4.81,0,0,1,4.27-5.26l.9-.1,23.85-2.47a4.78,4.78,0,0,1,5.25,4.26l.58,5.51Z"/><path class="cls-27" d="M374,345.48c-1.71.5-3.43.92-5.16,1.33-6.15,1.46-12.53,2.67-18.79,1.65-2.59-.41-5.39-1.42-6.54-3.77-1-2.09-.41-4.44.81-6.51l23.85-2.47a4.78,4.78,0,0,1,5.25,4.26Z"/><polygon class="cls-6" points="411.07 702.57 403.72 703.33 399.19 703.81 378.4 705.99 377.09 706.12 341.83 368 340.84 358.46 374.83 354.92 411.07 702.57"/><path class="cls-28" d="M378.4,706l-1.31.14L341.83,368l6.55,2.12,32.7,326.53C381.41,699.86,379.88,703.41,378.4,706Z"/><polygon class="cls-28" points="393.43 696.09 402.2 707.83 406.6 694.77 373.07 363.95 360.78 365.52 393.43 696.09"/><path class="cls-19" d="M411.07,702.58l-1.95,10-6.48,33.23-5.33.56-6-11.89,0-.1-14.2-28.31,0-.23s4-9.24,4-9.24l6.91,7.64,5.44-8.2,6.07,5.51,2.06,1.87.64-1.11,4.4-7.58Z"/><path class="cls-29" d="M393.43,696.09l6.07,5.51c-3.5-.45-7.36,1.06-10.63,4.11-5.72,5.35-2.05,18.21,2.42,28.72l-14.2-28.31,0-.23s4-9.24,4-9.24l6.91,7.64Z"/><path class="cls-29" d="M411.07,702.58l-1.95,10c-1.24-5.54-3.81-8.85-6.92-10.27l4.4-7.58Z"/><path class="cls-6" d="M392.14,736.13l5.16,10.29,5.33-.55,3.63-18.56C401.46,730.1,396.81,733.12,392.14,736.13Z"/><polygon class="cls-29" points="376.75 367.17 341.49 370.84 340.06 357.1 355.45 355.5 375.31 353.43 375.94 359.48 376.75 367.17"/><path class="cls-26" d="M375.31,353.43l.63,6.05c-3.05,1.14-6.14,2.22-9.25,3.16-5.22,1.6-10.8,2.86-16.11,1.57-1.49-.37-3.22-1.32-3.11-2.87.08-1.09,1.08-1.86,2-2.45a61.54,61.54,0,0,1,6-3.39Z"/><path class="cls-13" d="M401.79,514.53a7.43,7.43,0,0,1-6.34,8.47c-4.06.55-9.32.85-13.81-.25-8.73-2.14,7.61-3.8,7.61-3.8s-14.34-2.71-15.27-4.38,10.33-2.73,15.63-.77c0,0-13.33-8.07-12.59-10.33s13.32,3,16,6.07c0,0-6.34-10.56-5.2-11.78s11.46,6.92,13.13,13A30.25,30.25,0,0,1,401.79,514.53Z"/><path class="cls-30" d="M315.48,289.53s-.13,14.37-7.18,17.22L308,292.91S312.72,287.24,315.48,289.53Z"/><path class="cls-13" d="M307.41,291a6.16,6.16,0,0,0-3.19-4.84c-19.81-10.85-31.06-8.95-35.85-7a6,6,0,0,0-3.58,4.23,96.11,96.11,0,0,0-1.74,19.72,7.43,7.43,0,1,0,1.09,14.42c.78,4.42,2,7.93,3.81,9.55l.15.12.13,25.5,17.31,7.39a5.76,5.76,0,0,0,7.74-7.11h0l-2-21.54c5.85-.4,11.1-1.62,13.61-3.56C310,323.85,308.25,299.76,307.41,291Z"/><path class="cls-31" d="M291.26,331.4s-9.7,1-17.22-5.63c0,0,7.62,15.2,17.88,12.67Z"/><path class="cls-6" d="M253,289c.82-5.44,3-10.09,7.32-13,15.27-10.37,28.6,1.36,40.76-4.23s20.5.11,19.37,13.78c-1.29,15.61-16,20.18-31.77,9.31s-16.38-7.85-17.78-6.38c-1.1,1.16-.74,11-1.46,15.28a37.41,37.41,0,0,1-.85,5.8c-.72,2.22-3.73-6.45-5.59-6.51-1.69,0-8.29.48-8.49,7a7.33,7.33,0,0,0,1.32,4.31,7.19,7.19,0,0,0,8.26,3.14,15.06,15.06,0,0,1,3.55,14.05S245.6,326.11,253,289Z"/><path class="cls-19" d="M291.92,314.83a20.75,20.75,0,0,0,10.15.45S294.87,324.86,291.92,314.83Z"/><path class="cls-32" d="M298.75,304.35a10.48,10.48,0,1,0,10.48-10.48A10.48,10.48,0,0,0,298.75,304.35Z"/><path class="cls-32" d="M275.24,304.35a10.48,10.48,0,1,0,10.48-10.48A10.48,10.48,0,0,0,275.24,304.35Z"/><path class="cls-33" d="M275.37,303.09l-13.46-.27a.08.08,0,0,1-.08-.09.09.09,0,0,1,.08-.08l13.46-.27a.36.36,0,1,1,0,.71Z"/><line class="cls-32" x1="298.75" y1="302.73" x2="296.11" y2="302.73"/><line class="cls-34" x1="319.59" y1="302.73" x2="308.25" y2="302.73"/><path class="cls-31" d="M261.06,304.69a8.61,8.61,0,0,0,.72,3.66,8.34,8.34,0,0,0,2.17,3,.22.22,0,0,1,0,.32.23.23,0,0,1-.29.05h0a5.06,5.06,0,0,0-2.08-.72,3,3,0,0,0-2.08.4,2.44,2.44,0,0,0-.95,1.89,3.75,3.75,0,0,0,.66,2.15,3.59,3.59,0,0,1-.9-2.15,2.7,2.7,0,0,1,.95-2.19,3.29,3.29,0,0,1,2.36-.54,5,5,0,0,1,2.29.78l-.27.36a7.85,7.85,0,0,1-2.19-3.18A7.56,7.56,0,0,1,261.06,304.69Z"/><rect class="cls-6" x="459.48" y="283.79" width="281.61" height="408.29"/><polygon class="cls-19" points="726.91 665.04 473.51 665.04 473.51 298.07 693.76 298.07 726.91 344.93 726.91 665.04"/><path class="cls-35" d="M693.6,298.17l-11.81,43.41c-.53,1.93.74,3.88,2.51,3.87l42.77-.38Z"/><text class="cls-36" transform="translate(537.15 350.33)">Response</text><text class="cls-37" transform="translate(579.76 375.76)">Sheet</text><line class="cls-38" x1="514.51" y1="355.85" x2="686.07" y2="355.85"/><rect class="cls-39" x="505.93" y="434.14" width="28.74" height="28.74"/><path class="cls-6" d="M509.73,448.1l12.46,11.54-4.14.55,20-36.85a.62.62,0,0,1,.84-.25.63.63,0,0,1,.28.8l-16.61,38.48-.07.15a2.33,2.33,0,0,1-3.07,1.22,2.42,2.42,0,0,1-1-.82l-9.62-14a.63.63,0,0,1,.16-.87A.65.65,0,0,1,509.73,448.1Z"/><path class="cls-6" d="M628.59,436.4H562a3,3,0,0,1-2.95-2.95h0A3,3,0,0,1,562,430.5h66.55a3,3,0,0,1,2.95,2.95h0A3,3,0,0,1,628.59,436.4Z"/><path class="cls-3" d="M691.7,446.2H562a3,3,0,0,1-2.95-2.95h0A3,3,0,0,1,562,440.3H691.7a3,3,0,0,1,2.95,2.95h0A3,3,0,0,1,691.7,446.2Z"/><path class="cls-3" d="M691.7,456H562a3,3,0,0,1-2.95-2.95h0A3,3,0,0,1,562,450.1H691.7a3,3,0,0,1,2.95,2.94h0A3,3,0,0,1,691.7,456Z"/><rect class="cls-39" x="505.93" y="492.29" width="28.74" height="28.74"/><path class="cls-6" d="M509.73,506.25l12.46,11.54-4.14.55,20-36.85a.62.62,0,0,1,.84-.25.63.63,0,0,1,.28.8l-16.61,38.48-.07.15a2.33,2.33,0,0,1-3.07,1.22,2.42,2.42,0,0,1-1-.82l-9.62-14a.63.63,0,0,1,.16-.87A.65.65,0,0,1,509.73,506.25Z"/><path class="cls-6" d="M628.59,494.55H562a3,3,0,0,1-2.95-2.95h0a3,3,0,0,1,2.95-3h66.55a3,3,0,0,1,2.95,3h0A3,3,0,0,1,628.59,494.55Z"/><path class="cls-3" d="M691.7,504.35H562a3,3,0,0,1-2.95-3h0a3,3,0,0,1,2.95-2.95H691.7a3,3,0,0,1,2.95,2.95h0A3,3,0,0,1,691.7,504.35Z"/><path class="cls-3" d="M691.7,514.14H562a3,3,0,0,1-2.95-2.95h0a3,3,0,0,1,2.95-2.94H691.7a3,3,0,0,1,2.95,2.94h0A3,3,0,0,1,691.7,514.14Z"/><rect class="cls-39" x="505.93" y="550.44" width="28.74" height="28.74"/><path class="cls-6" d="M509.73,564.4l12.46,11.54-4.14.55,20-36.85a.62.62,0,0,1,.84-.25.63.63,0,0,1,.28.8l-16.61,38.48-.07.15a2.35,2.35,0,0,1-4.08.4l-9.62-14a.63.63,0,0,1,.16-.87A.65.65,0,0,1,509.73,564.4Z"/><path class="cls-6" d="M628.59,552.7H562a3,3,0,0,1-2.95-3h0a3,3,0,0,1,2.95-3h66.55a3,3,0,0,1,2.95,3h0A3,3,0,0,1,628.59,552.7Z"/><path class="cls-3" d="M691.7,562.5H562a3,3,0,0,1-2.95-3h0A3,3,0,0,1,562,556.6H691.7a3,3,0,0,1,2.95,2.95h0A3,3,0,0,1,691.7,562.5Z"/><rect class="cls-3" x="559.09" y="566.4" width="135.56" height="5.9" rx="2.03"/><rect class="cls-39" x="505.93" y="608.59" width="28.74" height="28.74"/><path class="cls-6" d="M509.73,622.55l12.46,11.54-4.14.55,20-36.85a.62.62,0,0,1,.84-.25.63.63,0,0,1,.28.8l-16.61,38.48-.07.15a2.35,2.35,0,0,1-4.08.4l-9.62-14a.63.63,0,0,1,.16-.87A.65.65,0,0,1,509.73,622.55Z"/><path class="cls-6" d="M628.59,610.85H562a3,3,0,0,1-2.95-3h0A3,3,0,0,1,562,605h66.55a3,3,0,0,1,2.95,2.95h0A3,3,0,0,1,628.59,610.85Z"/><path class="cls-3" d="M691.7,620.65H562a3,3,0,0,1-2.95-2.95h0a3,3,0,0,1,2.95-3H691.7a3,3,0,0,1,2.95,3h0A3,3,0,0,1,691.7,620.65Z"/><path class="cls-3" d="M691.7,630.44H562a3,3,0,0,1-2.95-3h0a3,3,0,0,1,2.95-2.94H691.7a3,3,0,0,1,2.95,2.94h0A3,3,0,0,1,691.7,630.44Z"/><path class="cls-10" d="M646.88,282.55H554.47l5.23-21a4.33,4.33,0,0,1,4.21-3.28h73.53a4.33,4.33,0,0,1,4.21,3.28Z"/><path class="cls-10" d="M668.87,284.75v20.39a5,5,0,0,1-5,5H536.74a5,5,0,0,1-5-5V284.75a4.2,4.2,0,0,1,4.19-4.2H664.67A4.21,4.21,0,0,1,668.87,284.75Z"/><path class="cls-19" d="M605.75,270.42a5.39,5.39,0,1,1-5.38-5.39A5.38,5.38,0,0,1,605.75,270.42Z"/><polygon class="cls-40" points="646.39 280.55 554.95 280.55 556.14 275.79 645.2 275.79 646.39 280.55"/><path class="cls-41" d="M668.87,299v6.11a5,5,0,0,1-5,5H536.74a5,5,0,0,1-5-5v-5.82c12-4.55,38.36-7.71,69-7.71C630.64,291.61,656.55,294.65,668.87,299Z"/><rect class="cls-10" x="442.18" y="692.08" width="316.22" height="25.34"/><path class="cls-42" d="M758.4,692.08v7c-27.24,4.33-63.89,7-104.19,7-59,0-110.13-5.71-135.44-14Z"/><rect class="cls-7" x="488.95" y="692.08" width="7.45" height="25.34"/><rect class="cls-7" x="503.17" y="692.08" width="3.73" height="25.34"/><rect class="cls-7" x="704.17" y="692.08" width="7.45" height="25.34"/><rect class="cls-7" x="693.68" y="692.08" width="3.73" height="25.34"/><path class="cls-6" d="M768.49,742h-2.32V721.84h2.32a2.21,2.21,0,0,0,0-4.42H444.38a14.5,14.5,0,0,0,0,29H768.49a2.21,2.21,0,1,0,0-4.42Z"/><path class="cls-29" d="M766.18,721.84V742H444.32a10.08,10.08,0,0,1,0-20.16Z"/><path class="cls-19" d="M757.76,721.84c-9.09,4-70.91,7.17-145.81,7.17s-136.72-3.13-145.81-7.17Z"/></g></g></svg>