<?xml version="1.0" encoding="iso-8859-1"?>
<!-- Generator: Adobe Illustrator 19.0.0, SVG Export Plug-In . SVG Version: 6.00 Build 0)  -->
<svg version="1.1" id="Layer_1" xmlns="http://www.w3.org/2000/svg" xmlns:xlink="http://www.w3.org/1999/xlink" x="0px" y="0px"
	 viewBox="0 0 370.91 370.91" style="enable-background:new 0 0 370.91 370.91;" xml:space="preserve">
<g>
	<g>
		<path d="M347.419,86.546H23.491C9.891,86.546,0,97.673,0,110.037v150.836c0,13.6,11.128,23.491,23.491,23.491h323.927
			c12.364,0,23.491-9.892,23.491-23.491V110.037C370.91,96.437,359.782,86.546,347.419,86.546z M346.182,259.637H24.728V111.273
			h321.455V259.637z"/>
	</g>
</g>
<g>
	<g>
		<path d="M55.637,222.545c-4.945-4.945-12.364-4.945-17.309,0c-2.473,2.472-3.709,4.944-3.709,8.654
			c0,3.708,1.236,6.18,3.709,8.654c2.472,2.473,4.945,3.709,8.654,3.709c3.709,0,6.182-1.236,8.655-3.709
			c2.473-2.472,3.709-4.944,3.709-8.654C59.346,227.491,58.11,225.017,55.637,222.545z"/>
	</g>
</g>
<g>
	<g>
		<path d="M332.583,222.546c-4.946-4.946-12.364-4.946-17.31,0c-2.473,2.472-3.709,4.944-3.709,8.654
			c0,3.708,1.236,6.18,3.709,8.654c2.473,2.473,4.945,3.709,8.655,3.709s7.418-1.236,8.655-3.709
			c2.473-2.472,3.709-4.944,3.709-8.654C336.292,227.492,335.056,225.018,332.583,222.546z"/>
	</g>
</g>
<g>
	<g>
		<path d="M90.255,222.546c-3.71-4.946-12.364-4.946-17.31,0c-2.473,2.472-3.709,4.944-3.709,8.654c0,3.708,1.236,6.18,3.709,8.654
			c2.473,2.473,4.945,3.709,8.655,3.709s6.182-1.236,8.655-3.709c2.473-2.472,3.709-4.944,3.709-8.654
			C93.964,227.492,92.728,225.018,90.255,222.546z"/>
	</g>
</g>
<g>
	<g>
		<path d="M124.874,222.545c-4.945-4.945-12.364-4.945-17.309,0c-2.473,2.472-3.709,4.944-3.709,8.654
			c0,3.708,1.236,6.18,3.709,8.654c2.473,2.473,4.945,3.709,8.654,3.709c3.709,0,6.182-1.236,8.655-3.709
			c2.473-2.472,3.709-4.944,3.709-8.654C128.582,227.491,127.346,225.017,124.874,222.545z"/>
	</g>
</g>
<g>
	<g>
		<path d="M263.346,222.545c-4.945-4.945-12.364-4.945-17.309,0c-2.473,2.472-3.709,4.944-3.709,8.654
			c0,3.708,1.236,6.18,3.709,8.654c2.472,2.473,4.945,3.709,8.654,3.709c3.709,0,6.182-1.236,8.655-3.709
			c2.473-2.472,3.709-4.944,3.709-8.654C267.055,227.491,265.819,225.017,263.346,222.545z"/>
	</g>
</g>
<g>
	<g>
		<path d="M297.965,222.545c-4.945-4.945-12.364-4.945-17.309,0c-2.473,2.472-3.709,4.944-3.709,8.654
			c0,3.708,1.236,6.18,3.709,8.654c2.473,2.473,4.945,3.709,8.654,3.709c3.709,0,7.418-1.236,8.655-3.709
			c2.473-2.472,3.709-4.944,3.709-8.654C301.673,227.491,300.437,225.017,297.965,222.545z"/>
	</g>
</g>
<g>
	<g>
		<path d="M124.874,187.928c-4.945-4.945-12.364-4.945-17.309,0c-2.473,2.472-3.709,4.945-3.709,8.654
			c0,3.709,1.236,6.182,3.709,8.654c2.473,2.473,4.945,3.709,8.654,3.709c3.709,0,6.182-1.236,8.655-3.709
			c2.473-2.472,3.709-4.945,3.709-8.654C128.582,192.873,127.346,190.4,124.874,187.928z"/>
	</g>
</g>
<g>
	<g>
		<path d="M159.492,187.928c-4.945-4.945-12.364-4.945-17.309,0c-2.473,2.472-3.709,4.945-3.709,8.654
			c0,3.709,1.236,6.182,3.709,8.654c2.473,2.473,4.945,3.709,8.654,3.709c3.709,0,6.182-1.236,8.655-3.709
			c2.473-2.472,3.709-4.945,3.709-8.654C163.201,192.873,161.965,190.4,159.492,187.928z"/>
	</g>
</g>
<g>
	<g>
		<path d="M194.11,187.928c-4.945-4.945-12.364-4.945-17.309,0c-2.473,2.472-3.709,4.945-3.709,8.654
			c0,3.709,1.236,6.182,3.709,8.654c2.472,2.473,4.945,3.709,8.654,3.709c3.709,0,6.182-1.236,8.655-3.709
			c2.473-2.472,3.709-4.945,3.709-8.654C197.819,192.873,196.583,190.4,194.11,187.928z"/>
	</g>
</g>
<g>
	<g>
		<path d="M228.728,187.928c-4.945-4.945-12.364-4.945-17.309,0c-2.473,2.472-3.709,4.945-3.709,8.654
			c0,3.709,1.236,6.182,3.709,8.654c2.472,2.473,4.945,3.709,8.654,3.709c3.709,0,6.182-1.236,8.655-3.709
			c2.473-2.472,3.709-4.945,3.709-8.654C232.437,192.873,231.201,190.4,228.728,187.928z"/>
	</g>
</g>
<g>
	<g>
		<path d="M263.346,187.928c-4.945-4.945-12.364-4.945-17.309,0c-2.473,2.472-3.709,4.945-3.709,8.654
			c0,3.709,1.236,6.182,3.709,8.654c2.472,2.473,4.945,3.709,8.654,3.709c3.709,0,6.182-1.236,8.655-3.709
			c2.473-2.472,3.709-4.945,3.709-8.654C267.055,192.873,265.819,190.4,263.346,187.928z"/>
	</g>
</g>
<g>
	<g>
		<path d="M55.637,153.309c-4.945-4.945-12.364-4.945-17.309,0c-2.473,2.472-3.709,4.945-3.709,8.654
			c0,3.709,1.236,6.182,3.709,8.654c2.472,2.474,4.945,3.709,8.654,3.709c3.709,0,6.182-1.236,8.655-3.709
			c2.473-2.472,3.709-4.945,3.709-8.654C59.346,158.254,58.11,155.781,55.637,153.309z"/>
	</g>
</g>
<g>
	<g>
		<path d="M90.255,153.309c-4.945-4.945-12.364-4.945-17.309,0c-2.473,2.472-3.709,4.945-3.709,8.654
			c0,3.709,1.236,6.182,3.709,8.654c2.472,2.474,4.945,3.709,8.654,3.709s6.182-1.236,8.655-3.709
			c2.473-2.472,3.709-4.945,3.709-8.654C93.964,158.254,92.728,155.781,90.255,153.309z"/>
	</g>
</g>
<g>
	<g>
		<path d="M124.874,153.309c-4.945-4.945-12.364-4.945-17.309,0c-2.473,2.472-3.709,4.945-3.709,8.654
			c0,3.709,1.236,6.182,3.709,8.654c2.473,2.474,4.945,3.709,8.654,3.709c3.709,0,6.182-1.236,8.655-3.709
			c2.473-2.472,3.709-4.945,3.709-8.654C128.582,158.254,127.346,155.781,124.874,153.309z"/>
	</g>
</g>
<g>
	<g>
		<path d="M159.492,153.309c-4.945-4.945-12.364-4.945-17.309,0c-2.473,2.472-3.709,4.945-3.709,8.654
			c0,3.709,1.236,6.182,3.709,8.654c2.473,2.474,4.945,3.709,8.654,3.709c3.709,0,6.182-1.236,8.655-3.709
			c2.473-2.472,3.709-4.945,3.709-8.654C163.201,158.254,161.965,155.781,159.492,153.309z"/>
	</g>
</g>
<g>
	<g>
		<path d="M194.11,153.309c-4.945-4.945-12.364-4.945-17.309,0c-2.473,2.472-3.709,4.945-3.709,8.654
			c0,3.709,1.236,6.182,3.709,8.654c2.472,2.474,4.945,3.709,8.654,3.709c3.709,0,6.182-1.236,8.655-3.709
			c2.473-2.472,3.709-4.945,3.709-8.654C197.819,158.254,196.583,155.781,194.11,153.309z"/>
	</g>
</g>
<g>
	<g>
		<path d="M228.728,153.309c-3.709-4.945-12.364-4.945-17.309,0c-2.473,2.472-3.709,4.945-3.709,8.654
			c0,3.709,1.236,6.182,3.709,8.654c2.472,2.474,4.945,3.709,8.654,3.709c3.709,0,6.182-1.236,8.655-3.709
			c2.473-2.472,3.709-4.945,3.709-8.654C232.437,158.254,231.201,155.781,228.728,153.309z"/>
	</g>
</g>
<g>
	<g>
		<path d="M263.346,153.309c-4.945-4.945-12.364-4.945-17.309,0c-2.473,2.472-3.709,4.945-3.709,8.654
			c0,3.709,1.236,6.182,3.709,8.654c2.472,2.474,4.945,3.709,8.654,3.709c3.709,0,6.182-1.236,8.655-3.709
			c2.473-2.472,3.709-4.945,3.709-8.654C267.055,158.254,265.819,155.781,263.346,153.309z"/>
	</g>
</g>
<g>
	<g>
		<path d="M297.965,153.309c-4.945-4.945-12.364-4.945-17.309,0c-2.473,2.472-3.709,4.945-3.709,8.654
			c0,3.709,1.236,6.182,3.709,8.654c2.473,2.474,4.945,3.709,8.654,3.709c3.709,0,7.418-1.236,8.655-3.709
			c2.473-2.472,3.709-4.945,3.709-8.654C301.673,158.254,300.437,155.781,297.965,153.309z"/>
	</g>
</g>
<g>
	<g>
		<path d="M55.637,119.927c-4.945-4.945-12.364-4.945-17.309,0c-2.473,2.472-3.709,4.944-3.709,8.654
			c0,2.472,1.236,6.182,3.709,8.654c2.472,2.473,4.945,3.709,8.654,3.709c3.709,0,6.182-1.236,8.655-3.709
			c2.473-2.472,3.709-4.945,3.709-8.654C59.346,124.873,58.11,122.399,55.637,119.927z"/>
	</g>
</g>
<g>
	<g>
		<path d="M332.583,119.927c-4.945-4.945-12.364-4.945-17.309,0c-2.473,2.472-3.709,4.944-3.709,8.654
			c0,2.472,1.236,6.182,3.709,8.654c2.473,2.473,4.945,3.709,8.654,3.709c3.709,0,7.418-1.236,8.655-3.709
			c2.473-2.472,3.709-4.945,3.709-8.654C336.292,124.873,335.056,122.399,332.583,119.927z"/>
	</g>
</g>
<g>
	<g>
		<path d="M90.255,119.927c-4.945-4.945-12.364-4.945-17.309,0c-2.473,2.472-3.709,4.944-3.709,8.654
			c0,2.472,1.236,6.182,3.709,8.654c2.472,2.473,4.945,3.709,8.654,3.709s6.182-1.236,8.655-3.709
			c2.473-2.472,3.709-4.945,3.709-8.654C93.964,124.873,92.728,122.399,90.255,119.927z"/>
	</g>
</g>
<g>
	<g>
		<path d="M124.874,119.927c-4.945-4.945-12.364-4.945-17.309,0c-2.473,2.472-3.709,4.944-3.709,8.654
			c0,2.472,1.236,6.182,3.709,8.654c2.473,2.473,4.945,3.709,8.654,3.709c3.709,0,6.182-1.236,8.655-3.709
			c2.473-2.472,3.709-4.945,3.709-8.654C128.582,124.873,127.346,122.399,124.874,119.927z"/>
	</g>
</g>
<g>
	<g>
		<path d="M159.492,119.927c-4.945-4.945-12.364-4.945-17.309,0c-2.473,2.472-3.709,4.944-3.709,8.654
			c0,2.472,1.236,6.182,3.709,8.654c2.473,2.473,4.945,3.709,8.654,3.709c3.709,0,6.182-1.236,8.655-3.709
			c2.473-2.472,3.709-4.945,3.709-8.654C163.201,124.873,161.965,122.399,159.492,119.927z"/>
	</g>
</g>
<g>
	<g>
		<path d="M194.11,119.927c-4.945-4.945-12.364-4.945-17.309,0c-2.473,2.472-3.709,4.944-3.709,8.654
			c0,2.472,1.236,6.182,3.709,8.654c2.472,2.473,4.945,3.709,8.654,3.709c3.709,0,6.182-1.236,8.655-3.709
			c2.473-2.472,3.709-4.945,3.709-8.654C197.819,124.873,196.583,122.399,194.11,119.927z"/>
	</g>
</g>
<g>
	<g>
		<path d="M228.728,119.927c-3.709-4.945-12.364-4.945-17.309,0c-2.473,2.472-3.709,4.944-3.709,8.654
			c0,2.472,1.236,6.182,3.709,8.654c2.472,2.473,4.945,3.709,8.654,3.709c3.709,0,6.182-1.236,8.655-3.709
			c2.473-2.472,3.709-4.945,3.709-8.654C232.437,124.873,231.201,122.399,228.728,119.927z"/>
	</g>
</g>
<g>
	<g>
		<path d="M263.346,119.927c-4.945-4.945-12.364-4.945-17.309,0c-2.473,2.472-3.709,4.944-3.709,8.654
			c0,2.472,1.236,6.182,3.709,8.654c2.472,2.473,4.945,3.709,8.654,3.709c3.709,0,6.182-1.236,8.655-3.709
			c2.473-2.472,3.709-4.945,3.709-8.654C267.055,124.873,265.819,122.399,263.346,119.927z"/>
	</g>
</g>
<g>
	<g>
		<path d="M297.965,119.927c-4.945-4.945-12.364-4.945-17.309,0c-2.473,2.472-3.709,4.944-3.709,8.654
			c0,2.472,1.236,6.182,3.709,8.654c2.473,2.473,4.945,3.709,8.654,3.709c3.709,0,7.418-1.236,8.655-3.709
			c2.473-2.472,3.709-4.945,3.709-8.654C301.673,124.873,300.437,122.399,297.965,119.927z"/>
	</g>
</g>
<g>
	<g>
		<path d="M232.437,231.199c0-3.708-1.236-6.182-3.709-8.654c-4.945-4.945-12.364-4.945-17.309,0
			c-0.809,0.808-1.471,1.621-2.015,2.472h-13.28c-0.544-0.851-1.206-1.664-2.014-2.472c-4.945-4.945-12.364-4.945-17.309,0
			c-0.809,0.808-1.471,1.621-2.015,2.472h-13.278c-0.544-0.851-1.207-1.664-2.015-2.472c-4.945-4.945-12.364-4.945-17.309,0
			c-2.473,2.472-3.709,4.944-3.709,8.654c0,1.104,0.123,2.089,0.343,3.007c-0.217,0.999-0.343,2.054-0.343,3.174
			c-0.001,7.418,4.945,12.364,12.362,12.364h69.236c6.182,0,12.364-4.944,12.364-12.364c0-1.12-0.125-2.175-0.343-3.174
			C232.314,233.289,232.437,232.304,232.437,231.199z"/>
	</g>
</g>
<g>
	<g>
		<path d="M93.964,196.582c0-3.708-1.236-6.182-3.709-8.654c-4.945-4.945-12.364-4.945-17.309,0
			c-0.809,0.808-1.471,1.621-2.015,2.472H57.653c-0.544-0.851-1.207-1.664-2.015-2.472c-4.945-4.945-12.364-4.945-17.309,0
			c-2.473,2.472-3.709,4.945-3.709,8.654c0,1.105,0.123,2.089,0.343,3.007c-0.217,0.999-0.343,2.054-0.343,3.174
			c-0.001,7.419,4.944,12.364,12.362,12.364h34.618c6.182,0,12.364-4.945,12.364-12.364c0-1.12-0.125-2.175-0.343-3.174
			C93.841,198.671,93.964,197.687,93.964,196.582z"/>
	</g>
</g>
<g>
	<g>
		<path d="M336.292,161.963c0-3.708-1.236-6.182-3.709-8.654c-4.945-4.945-12.364-4.945-17.309,0
			c-2.473,2.472-3.709,4.945-3.709,8.654c0,1.104,0.123,2.089,0.343,3.007c-0.217,0.999-0.343,2.054-0.343,3.174V190.4H299.98
			c-0.544-0.851-1.206-1.664-2.015-2.472c-4.945-4.945-12.364-4.945-17.309,0c-2.473,2.472-3.709,4.945-3.709,8.654
			c0,1.105,0.123,2.089,0.343,3.007c-0.217,0.999-0.343,2.054-0.343,3.174c-0.001,7.419,4.945,12.364,12.362,12.364h34.618
			c6.182,0,12.364-4.945,12.364-12.364v-34.619c0-1.12-0.125-2.175-0.343-3.174C336.169,164.052,336.292,163.067,336.292,161.963z"
			/>
	</g>
</g>
<g>
</g>
<g>
</g>
<g>
</g>
<g>
</g>
<g>
</g>
<g>
</g>
<g>
</g>
<g>
</g>
<g>
</g>
<g>
</g>
<g>
</g>
<g>
</g>
<g>
</g>
<g>
</g>
<g>
</g>
</svg>
